<?xml version="1.0" encoding="UTF-8" standalone="no"?>
<svg
   width="277"
   height="277"
   viewBox="0 0 277 277"
   version="1.1"
   id="svg84"
   sodipodi:docname="donut.svg"
   inkscape:version="1.2.2 (732a01da63, 2022-12-09)"
   xmlns:inkscape="http://www.inkscape.org/namespaces/inkscape"
   xmlns:sodipodi="http://sodipodi.sourceforge.net/DTD/sodipodi-0.dtd"
   xmlns="http://www.w3.org/2000/svg"
   xmlns:svg="http://www.w3.org/2000/svg">
  <sodipodi:namedview
     id="namedview86"
     pagecolor="#ffffff"
     bordercolor="#000000"
     borderopacity="0.25"
     inkscape:showpageshadow="2"
     inkscape:pageopacity="0.0"
     inkscape:pagecheckerboard="0"
     inkscape:deskcolor="#d1d1d1"
     showgrid="false"
     inkscape:zoom="0.85198556"
     inkscape:cx="138.5"
     inkscape:cy="138.5"
     inkscape:window-width="1920"
     inkscape:window-height="1129"
     inkscape:window-x="-8"
     inkscape:window-y="-8"
     inkscape:window-maximized="1"
     inkscape:current-layer="svg84" />
  <defs
     id="defs55">
    <filter
       id="Combined_Shape"
       x="16"
       y="16"
       width="261"
       height="261"
       filterUnits="userSpaceOnUse">
      <feOffset
         dx="8"
         dy="8"
         input="SourceAlpha"
         id="feOffset2" />
      <feGaussianBlur
         stdDeviation="6"
         result="blur"
         id="feGaussianBlur4" />
      <feFlood
         flood-color="#171934"
         flood-opacity="0.2"
         id="feFlood6" />
      <feComposite
         operator="in"
         in2="blur"
         id="feComposite8"
         result="result1" />
      <feComposite
         in="SourceGraphic"
         in2="result1"
         id="feComposite10" />
    </filter>
    <filter
       id="Combined_Shape-2"
       x="0"
       y="0"
       width="261"
       height="261"
       filterUnits="userSpaceOnUse">
      <feOffset
         dx="-8"
         dy="-8"
         input="SourceAlpha"
         id="feOffset13" />
      <feGaussianBlur
         stdDeviation="6"
         result="blur-2"
         id="feGaussianBlur15" />
      <feFlood
         flood-color="#fff"
         flood-opacity="0.502"
         id="feFlood17" />
      <feComposite
         operator="in"
         in2="blur-2"
         id="feComposite19" />
    </filter>
    <radialGradient
       id="radial-gradient"
       cx="100.5022"
       cy="100.4992"
       r="100.4993"
       gradientUnits="userSpaceOnUse"
       gradientTransform="scale(0.99999253,1.0000075)"
       fx="100.5022"
       fy="100.4992">
      <stop
         offset="0"
         stop-color="#fc265d"
         id="stop22" />
      <stop
         offset="0.912"
         stop-color="#fc265d"
         id="stop24" />
      <stop
         offset="1"
         stop-color="#fc265d"
         id="stop26" />
    </radialGradient>
    <filter
       id="Oval_Copy_9"
       x="79"
       y="79"
       width="120"
       height="120"
       filterUnits="userSpaceOnUse">
      <feOffset
         dx="8"
         dy="8"
         input="SourceAlpha"
         id="feOffset29" />
      <feGaussianBlur
         stdDeviation="6"
         result="blur-3"
         id="feGaussianBlur31" />
      <feFlood
         flood-color="#fff"
         flood-opacity="0.502"
         result="color"
         id="feFlood33" />
      <feComposite
         operator="out"
         in="SourceGraphic"
         in2="blur-3"
         id="feComposite35"
         result="result1" />
      <feComposite
         operator="in"
         in="color"
         in2="result1"
         id="feComposite37" />
      <feComposite
         operator="in"
         in2="SourceGraphic"
         id="feComposite39" />
    </filter>
    <filter
       id="Oval_Copy_9-2"
       x="79"
       y="79"
       width="120"
       height="120"
       filterUnits="userSpaceOnUse">
      <feOffset
         dx="8"
         dy="8"
         input="SourceAlpha"
         id="feOffset42" />
      <feGaussianBlur
         stdDeviation="6"
         result="blur-4"
         id="feGaussianBlur44" />
      <feFlood
         flood-color="#171934"
         flood-opacity="0.2"
         result="color-2"
         id="feFlood46" />
      <feComposite
         operator="out"
         in="SourceGraphic"
         in2="blur-4"
         id="feComposite48"
         result="result1" />
      <feComposite
         operator="in"
         in="color-2"
         in2="result1"
         id="feComposite50" />
      <feComposite
         operator="in"
         in2="SourceGraphic"
         id="feComposite52" />
    </filter>
  </defs>
  <g
     id="Graph"
     transform="translate(26,26)">
    <g
       id="Combined_Shape-3"
       data-name="Combined Shape">
      <g
         transform="translate(-26,-26)"
         filter="url(#Combined_Shape)"
         id="g58">
        <path
           id="Combined_Shape-4"
           data-name="Combined Shape"
           d="M 112.5,225 A 113.332,113.332 0 0 1 89.827,222.714 111.883,111.883 0 0 1 49.6,205.787 112.828,112.828 0 0 1 8.841,156.287 111.936,111.936 0 0 1 2.286,135.17 113.6,113.6 0 0 1 2.286,89.824 111.883,111.883 0 0 1 19.213,49.6 112.828,112.828 0 0 1 68.71,8.841 111.935,111.935 0 0 1 89.827,2.286 113.6,113.6 0 0 1 135.173,2.286 111.883,111.883 0 0 1 175.4,19.213 112.828,112.828 0 0 1 216.159,68.713 111.934,111.934 0 0 1 222.714,89.83 113.6,113.6 0 0 1 222.714,135.176 111.883,111.883 0 0 1 205.787,175.4 112.828,112.828 0 0 1 156.287,216.159 111.934,111.934 0 0 1 135.17,222.714 113.332,113.332 0 0 1 112.5,225 Z M 112.5,12 A 101.244,101.244 0 0 0 92.246,14.042 99.95,99.95 0 0 0 56.309,29.164 100.793,100.793 0 0 0 19.9,73.381 100,100 0 0 0 14.044,92.246 101.481,101.481 0 0 0 14.044,132.755 99.95,99.95 0 0 0 29.166,168.691 100.793,100.793 0 0 0 73.381,205.1 100,100 0 0 0 92.246,210.956 101.48,101.48 0 0 0 132.755,210.956 99.95,99.95 0 0 0 168.691,195.834 100.793,100.793 0 0 0 205.1,151.619 100,100 0 0 0 210.956,132.754 101.48,101.48 0 0 0 210.956,92.245 99.95,99.95 0 0 0 195.834,56.309 100.793,100.793 0 0 0 151.619,19.9 100,100 0 0 0 132.754,14.044 101.244,101.244 0 0 0 112.5,12 Z"
           transform="translate(26,26)"
           fill="#f5f5fa" />
      </g>
      <g
         transform="translate(-26,-26)"
         filter="url(#Combined_Shape-2)"
         id="g61">
        <path
           id="Combined_Shape-5"
           data-name="Combined Shape"
           d="M 112.5,225 A 113.332,113.332 0 0 1 89.827,222.714 111.883,111.883 0 0 1 49.6,205.787 112.828,112.828 0 0 1 8.841,156.287 111.936,111.936 0 0 1 2.286,135.17 113.6,113.6 0 0 1 2.286,89.824 111.883,111.883 0 0 1 19.213,49.6 112.828,112.828 0 0 1 68.71,8.841 111.935,111.935 0 0 1 89.827,2.286 113.6,113.6 0 0 1 135.173,2.286 111.883,111.883 0 0 1 175.4,19.213 112.828,112.828 0 0 1 216.159,68.713 111.934,111.934 0 0 1 222.714,89.83 113.6,113.6 0 0 1 222.714,135.176 111.883,111.883 0 0 1 205.787,175.4 112.828,112.828 0 0 1 156.287,216.159 111.934,111.934 0 0 1 135.17,222.714 113.332,113.332 0 0 1 112.5,225 Z M 112.5,12 A 101.244,101.244 0 0 0 92.246,14.042 99.95,99.95 0 0 0 56.309,29.164 100.793,100.793 0 0 0 19.9,73.381 100,100 0 0 0 14.044,92.246 101.481,101.481 0 0 0 14.044,132.755 99.95,99.95 0 0 0 29.166,168.691 100.793,100.793 0 0 0 73.381,205.1 100,100 0 0 0 92.246,210.956 101.48,101.48 0 0 0 132.755,210.956 99.95,99.95 0 0 0 168.691,195.834 100.793,100.793 0 0 0 205.1,151.619 100,100 0 0 0 210.956,132.754 101.48,101.48 0 0 0 210.956,92.245 99.95,99.95 0 0 0 195.834,56.309 100.793,100.793 0 0 0 151.619,19.9 100,100 0 0 0 132.754,14.044 101.244,101.244 0 0 0 112.5,12 Z"
           transform="translate(26,26)"
           fill="#ffffff" />
      </g>
      <path
         id="Combined_Shape-6"
         data-name="Combined Shape"
         d="M 112.5,225 A 113.332,113.332 0 0 1 89.827,222.714 111.883,111.883 0 0 1 49.6,205.787 112.828,112.828 0 0 1 8.841,156.287 111.936,111.936 0 0 1 2.286,135.17 113.6,113.6 0 0 1 2.286,89.824 111.883,111.883 0 0 1 19.213,49.6 112.828,112.828 0 0 1 68.71,8.841 111.935,111.935 0 0 1 89.827,2.286 113.6,113.6 0 0 1 135.173,2.286 111.883,111.883 0 0 1 175.4,19.213 112.828,112.828 0 0 1 216.159,68.713 111.934,111.934 0 0 1 222.714,89.83 113.6,113.6 0 0 1 222.714,135.176 111.883,111.883 0 0 1 205.787,175.4 112.828,112.828 0 0 1 156.287,216.159 111.934,111.934 0 0 1 135.17,222.714 113.332,113.332 0 0 1 112.5,225 Z M 112.5,12 A 101.244,101.244 0 0 0 92.246,14.042 99.95,99.95 0 0 0 56.309,29.164 100.793,100.793 0 0 0 19.9,73.381 100,100 0 0 0 14.044,92.246 101.481,101.481 0 0 0 14.044,132.755 99.95,99.95 0 0 0 29.166,168.691 100.793,100.793 0 0 0 73.381,205.1 100,100 0 0 0 92.246,210.956 101.48,101.48 0 0 0 132.755,210.956 99.95,99.95 0 0 0 168.691,195.834 100.793,100.793 0 0 0 205.1,151.619 100,100 0 0 0 210.956,132.754 101.48,101.48 0 0 0 210.956,92.245 99.95,99.95 0 0 0 195.834,56.309 100.793,100.793 0 0 0 151.619,19.9 100,100 0 0 0 132.754,14.044 101.244,101.244 0 0 0 112.5,12 Z"
         fill="none" />
    </g>
    <path
       id="Combined_Shape_Copy_3"
       data-name="Combined Shape Copy 3"
       d="M 80.246,198.958 A 99.924,99.924 0 0 1 44.31,183.836 100.8,100.8 0 0 1 7.9,139.619 100,100 0 0 1 2.045,120.754 101.463,101.463 0 0 1 2.045,80.246 99.924,99.924 0 0 1 17.164,44.31 100.8,100.8 0 0 1 61.381,7.9 100.021,100.021 0 0 1 80.246,2.042 101.463,101.463 0 0 1 120.754,2.042 99.924,99.924 0 0 1 156.69,17.164 100.8,100.8 0 0 1 193.1,61.381 100.022,100.022 0 0 1 198.955,80.246 101.21,101.21 0 0 1 201,100.5 Q 201,100.9 201,101.295 A 14.000804,14.000804 0 0 1 173,100.995 71.663,71.663 0 0 0 160.7,60.739 72.211,72.211 0 0 0 129.023,34.653 71.9,71.9 0 0 0 60.744,41.3 72.211,72.211 0 0 0 34.658,72.974 71.9,71.9 0 0 0 41.3,141.256 72.211,72.211 0 0 0 72.977,167.342 71.545,71.545 0 0 0 101,173 14.00117,14.00117 0 0 1 101.362,201 Q 100.931,201 100.501,201 A 101.21,101.21 0 0 1 80.246,198.958 Z"
       transform="translate(12,12)"
       fill="#ff645a" />
    <path
       id="Combined_Shape_Copy_4"
       data-name="Combined Shape Copy 4"
       d="M 80.246,198.958 A 99.924,99.924 0 0 1 44.31,183.836 100.8,100.8 0 0 1 7.9,139.619 100,100 0 0 1 2.045,120.754 101.463,101.463 0 0 1 2.045,80.246 99.924,99.924 0 0 1 17.164,44.31 100.8,100.8 0 0 1 61.381,7.9 100.021,100.021 0 0 1 80.246,2.042 101.463,101.463 0 0 1 120.754,2.042 99.924,99.924 0 0 1 156.69,17.164 100.8,100.8 0 0 1 193.1,61.381 100.022,100.022 0 0 1 198.955,80.246 101.21,101.21 0 0 1 201,100.5 Q 201,100.9 201,101.295 A 14.000804,14.000804 0 0 1 173,100.995 71.663,71.663 0 0 0 160.7,60.739 72.211,72.211 0 0 0 129.023,34.653 71.9,71.9 0 0 0 60.744,41.3 72.211,72.211 0 0 0 34.658,72.974 71.9,71.9 0 0 0 41.3,141.256 72.211,72.211 0 0 0 72.977,167.342 71.545,71.545 0 0 0 101,173 14.00117,14.00117 0 0 1 101.362,201 Q 100.931,201 100.501,201 A 101.21,101.21 0 0 1 80.246,198.958 Z"
       transform="rotate(180,106.5,106.5)"
       fill="url(#radial-gradient)"
       style="fill:url(#radial-gradient)" />
    <path
       id="Combined_Shape-7"
       data-name="Combined Shape"
       d="M 0,50 V 16.7 A 100.11,100.11 0 0 1 55.5,0 C 55.765,0 56.03,0 56.3,0 A 14.000804,14.000804 0 0 1 56,28 71.663,71.663 0 0 0 15.744,40.3 72.52,72.52 0 0 0 5.088,49.088 Q 4.636,49.54 4.188,50.001 Z"
       transform="translate(57,12)"
       fill="#ff645a" />
    <g
       id="Oval">
      <circle
         id="Oval-2"
         data-name="Oval"
         cx="72"
         cy="72"
         r="72"
         transform="translate(41,41)"
         fill="#f5f5fa" />
      <circle
         id="Oval-3"
         data-name="Oval"
         cx="72"
         cy="72"
         r="72"
         transform="translate(41,41)"
         fill="none" />
      <circle
         id="Oval-4"
         data-name="Oval"
         cx="72"
         cy="72"
         r="72"
         transform="translate(41,41)"
         fill="none" />
    </g>
    <g
       id="Oval_Copy_9-3"
       data-name="Oval Copy 9">
      <g
         data-type="innerShadowGroup"
         id="g76">
        <circle
           id="Oval_Copy_9-4"
           data-name="Oval Copy 9"
           cx="60"
           cy="60"
           r="60"
           transform="translate(53,53)"
           fill="#f5f5fa" />
        <g
           transform="translate(-26,-26)"
           filter="url(#Oval_Copy_9)"
           id="g74">
          <circle
             id="Oval_Copy_9-5"
             data-name="Oval Copy 9"
             cx="60"
             cy="60"
             r="60"
             transform="translate(79,79)"
             fill="#ffffff" />
        </g>
      </g>
      <g
         transform="translate(-26,-26)"
         filter="url(#Oval_Copy_9-2)"
         id="g79">
        <circle
           id="Oval_Copy_9-6"
           data-name="Oval Copy 9"
           cx="60"
           cy="60"
           r="60"
           transform="translate(79,79)"
           fill="#ffffff" />
      </g>
      <circle
         id="Oval_Copy_9-7"
         data-name="Oval Copy 9"
         cx="60"
         cy="60"
         r="60"
         transform="translate(53,53)"
         fill="none" />
    </g>
  </g>
</svg>
