<?xml version="1.0" encoding="UTF-8" standalone="no"?>
<svg
   id="svg"
   version="1.1"
   sodipodi:docname="truc.svg"
   width="201"
   height="201.0002"
   inkscape:version="1.2.2 (732a01da63, 2022-12-09)"
   xmlns:inkscape="http://www.inkscape.org/namespaces/inkscape"
   xmlns:sodipodi="http://sodipodi.sourceforge.net/DTD/sodipodi-0.dtd"
   xmlns="http://www.w3.org/2000/svg"
   xmlns:svg="http://www.w3.org/2000/svg">
  <sodipodi:namedview
     id="namedview16"
     pagecolor="#ffffff"
     bordercolor="#000000"
     borderopacity="0.25"
     inkscape:showpageshadow="2"
     inkscape:pageopacity="0.0"
     inkscape:pagecheckerboard="0"
     inkscape:deskcolor="#d1d1d1"
     showgrid="false"
     inkscape:zoom="1.5733333"
     inkscape:cx="152.54238"
     inkscape:cy="75.000002"
     inkscape:window-width="1920"
     inkscape:window-height="1129"
     inkscape:window-x="-8"
     inkscape:window-y="-8"
     inkscape:window-maximized="1"
     inkscape:current-layer="Graph" />
  <defs
     id="defs9" />
  <g
     id="Graph"
     transform="translate(-11.999999,-11.999902)">
    <path
       id="Combined_Shape_Copy_3"
       fill="#ff645a"
       data-name="Combined Shape Copy 3"
       d="M 92.246,210.958 A 99.924,99.924 0 0 1 56.31,195.836 100.8,100.8 0 0 1 19.9,151.619 100,100 0 0 1 14.045,132.754 101.463,101.463 0 0 1 14.045,92.246 99.924,99.924 0 0 1 29.164,56.31 100.8,100.8 0 0 1 73.381,19.9 100.021,100.021 0 0 1 92.246,14.042 101.463,101.463 0 0 1 132.754,14.042 99.924,99.924 0 0 1 168.69,29.164 100.8,100.8 0 0 1 205.1,73.381 100.022,100.022 0 0 1 210.955,92.246 101.21,101.21 0 0 1 213,112.5 Q 213,112.9 213,113.295 A 14.000804,14.000804 0 0 1 185,112.995 71.663,71.663 0 0 0 172.7,72.739 72.211,72.211 0 0 0 141.023,46.653 71.9,71.9 0 0 0 72.744,53.3 72.211,72.211 0 0 0 46.658,84.974 71.9,71.9 0 0 0 53.3,153.256 72.211,72.211 0 0 0 84.977,179.342 71.545,71.545 0 0 0 113,185 14.00117,14.00117 0 0 1 113.362,213 Q 112.931,213 112.501,213 A 101.21,101.21 0 0 1 92.246,210.958 Z" />
    <path
       id="Combined_Shape_Copy_4"
       fill="#fc265d"
       data-name="Combined Shape Copy 4"
       d="M 92.246,210.958 A 99.924,99.924 0 0 1 56.31,195.836 100.8,100.8 0 0 1 19.9,151.619 100,100 0 0 1 14.045,132.754 101.463,101.463 0 0 1 14.045,92.246 99.924,99.924 0 0 1 29.164,56.31 100.8,100.8 0 0 1 73.381,19.9 100.021,100.021 0 0 1 92.246,14.042 101.463,101.463 0 0 1 132.754,14.042 99.924,99.924 0 0 1 168.69,29.164 100.8,100.8 0 0 1 205.1,73.381 100.022,100.022 0 0 1 210.955,92.246 101.21,101.21 0 0 1 213,112.5 Q 213,112.9 213,113.295 A 14.000804,14.000804 0 0 1 185,112.995 71.663,71.663 0 0 0 172.7,72.739 72.211,72.211 0 0 0 141.023,46.653 71.9,71.9 0 0 0 72.744,53.3 72.211,72.211 0 0 0 46.658,84.974 71.9,71.9 0 0 0 53.3,153.256 72.211,72.211 0 0 0 84.977,179.342 71.545,71.545 0 0 0 113,185 14.00117,14.00117 0 0 1 113.362,213 Q 112.931,213 112.501,213 A 101.21,101.21 0 0 1 92.246,210.958 Z" />
    <path
       id="Combined_Shape-7"
       data-name="Combined Shape"
       d="M 57,62 V 28.7 A 100.11,100.11 0 0 1 112.5,12 C 112.765,12 113.03,12 113.3,12 A 14.000804,14.000804 0 0 1 113,40 71.663,71.663 0 0 0 72.744,52.3 72.52,72.52 0 0 0 62.088,61.088 Q 61.636,61.54 61.188,62.001 Z"
       fill="#ff645a" />
  </g>
</svg>
